<svg xmlns="http://www.w3.org/2000/svg" viewBox="0 0 120 120" width="120" height="120">
  <defs>
    <linearGradient id="bg" x1="0%" y1="0%" x2="100%" y2="100%">
      <stop offset="0%" style="stop-color:#1e40af"/>
      <stop offset="100%" style="stop-color:#3b82f6"/>
    </linearGradient>
  </defs>
  <rect width="120" height="120" rx="24" fill="url(#bg)"/>
  <!-- Apple shape -->
  <g transform="translate(60,62) scale(1)">
    <path d="M-2,-28 C-2,-32 2,-36 5,-34 C8,-32 8,-28 6,-26 C4,-24 0,-24 -2,-28Z" fill="#60a5fa" opacity="0.8"/>
    <path d="M0,-22 C-14,-22 -22,-10 -22,4 C-22,20 -10,32 0,32 C10,32 22,20 22,4 C22,-10 14,-22 0,-22Z" fill="white" opacity="0.95"/>
    <path d="M-2,-22 C-8,-18 -14,-8 -14,4 C-14,14 -6,24 0,24" fill="none" stroke="#bfdbfe" stroke-width="1.5" opacity="0.5"/>
  </g>
  <!-- Text -->
  <text x="60" y="102" text-anchor="middle" font-family="system-ui, -apple-system, sans-serif" font-size="10" font-weight="700" fill="white" letter-spacing="0.5">Seck Ndanane</text>
  <text x="60" y="114" text-anchor="middle" font-family="system-ui, -apple-system, sans-serif" font-size="7" font-weight="400" fill="#93c5fd" letter-spacing="1">APPLE</text>
</svg>
